<svg id="Layer_1" enable-background="new 0 0 512 512" height="512" viewBox="0 0 512 512" width="512" xmlns="http://www.w3.org/2000/svg"><g><circle cx="251.249" cy="280.208" fill="#29b6f6" r="231.79"/><path d="m251.249 48.419c-5.194 0-10.344.189-15.453.525 120.808 7.954 216.338 108.445 216.338 231.264s-95.53 223.31-216.338 231.264c5.109.336 10.259.525 15.453.525 128.015 0 231.791-103.776 231.791-231.789s-103.776-231.789-231.791-231.789z" fill="#03a9f4"/><path d="m349.86 436.159c-13.876 23.055-13.052 22.283-14.773 23.055-17.225 7.726-18.038 7.438-18.646 10.312-2.091 10.003-3.935 27.186-11.311 36.169-17.286 4.131-35.325 6.305-53.878 6.305-2.926 0-5.831-.051-8.726-.154.391-1.36.618-2.472.505-3.152l-8.705-54.702c-.958-6.068-18.131-6.614-20.676-11.26-12.609-22.942-11.827-21.211-11.94-22.458-2.369-25.126-2.771-24.796-1.453-26.64 10.642-14.865 10.322-14.031 10.425-15.7.927-16.318.33-18.059 3.132-19.615 10.467-5.851 20.089-2.205 21.222-1.999 0 0 46.173 5.285 53.621 16.318 10.58 15.659 9.066 19.336 13.145 18.687 25.219-4.059 24.23-4.337 26.177-2.946 20.861 14.927 21.387 14.546 21.49 17.451 1.082 30.143 1.308 28.794.391 30.329z" fill="#6de470"/><g fill="#4dcc68"><path d="m257.752 372.638c10.58 15.659 9.066 19.336 13.145 18.687 25.219-4.059 24.23-4.337 26.177-2.946.419.3.816.583 1.219.871-1.45-2.525-3.524-7.567-9.636-16.612-7.448-11.033-53.621-16.318-53.621-16.318-1.099-.2-10.178-3.606-20.267 1.514 14.107 2.282 37.826 7.165 42.983 14.804z"/><path d="m349.469 405.83c-.103-2.905-.628-2.524-21.49-17.451-1.947-1.391-.958-1.113-26.177 2.946-.184.029-.353.046-.516.057 16.711 11.877 17.182 11.753 17.277 14.448 1.082 30.143 1.308 28.793.391 30.328-13.877 23.055-13.052 22.283-14.773 23.055-17.225 7.726-18.038 7.438-18.646 10.312-2.091 10.003-3.935 27.186-11.311 36.169-10.234 2.446-20.737 4.186-31.448 5.215-.073.296-.156.608-.25.935 2.895.103 5.8.154 8.726.154 18.554 0 36.592-2.174 53.878-6.305 7.376-8.983 9.22-26.166 11.311-36.169.608-2.874 1.422-2.586 18.646-10.312 1.72-.773.896 0 14.773-23.055.917-1.533.691-.184-.391-30.327z"/></g><path d="m285.587 151.037c-3.801 8.025-30.844 10.673-33.543 31.699-.907 7.119 1.514 25.435-4.759 31.534-11.723 11.414-10.302 21.077-16.318 29.638-3.214 4.564-12.682 3.482-16.225 8.798-1.854 2.792-4.203 11.96-9.601 13.475-5.398 1.504-28.618-1.092-28.618-1.092-12.918.536-12.671 10.178-10.539 15.123 3.492 8.107 32.749 43.968 24.786 59.379-6.191 11.981-18.863 9.447-32.389-2.493-6.027-5.316-30.854-4.965-39.095-21.026-4.368-8.499-8.787-23.21-14.804-34.686-6.016-11.486-31.75-26.548-34.223-29.71-5.202-6.655-13.815-26.836-14.443-33.47-.618-6.624 5.604-31.668 5.79-32.162l7.314-20.82c.958-2.73-3.812-13.052-6.397-19.604 40.064-56.093 104.512-93.56 177.871-96.95-.247 4.492-1.823 8.087-3.194 9.169-46.925 37.509-47.069 43.958-46.853 56.021.361 20.48 6.057 27.31 18.626 29.731 8.87 1.71 19.769 5.12 29.072-8.19 23.715-33.955 29.422-31.338 34.799-31.348 17.06-.023 16.555 38.949 12.743 46.984z" fill="#6de470"/><g fill="#4dcc68"><path d="m206.294 57.837c-46.925 37.509-47.069 43.958-46.853 56.021.361 20.48 6.057 27.31 18.626 29.731 7.192 1.387 15.719 3.889 23.647-2.31-7.54-3.74-11.085-11.408-11.367-27.421-.216-12.063-.072-18.512 46.853-56.021 1.37-1.082 2.946-4.677 3.194-9.169-10.679.493-21.163 1.73-31.417 3.62-.631 2.733-1.708 4.78-2.683 5.549z"/><path d="m272.844 104.051c-3.903.007-7.986-1.356-18.995 10.871 4.415 12.154 3.341 30.829.833 36.116-3.801 8.025-30.844 10.673-33.543 31.699-.907 7.119 1.514 25.435-4.759 31.534-11.723 11.414-10.302 21.077-16.318 29.638-3.214 4.564-12.682 3.482-16.225 8.798-1.591 2.395-3.552 9.472-7.485 12.394.058-.003.112-.009.171-.011 0 0 23.22 2.596 28.618 1.092 5.398-1.514 7.747-10.683 9.601-13.475 3.544-5.316 13.011-4.234 16.225-8.798 6.016-8.561 4.595-18.224 16.318-29.638 6.274-6.099 3.853-24.415 4.759-31.534 2.699-21.026 29.741-23.673 33.543-31.699 3.812-8.036 4.317-47.008-12.743-46.987z"/><path d="m169.761 266.633c-8.61.191-24.144-1.545-24.144-1.545-12.918.536-12.671 10.178-10.539 15.123 3.427 7.955 31.632 42.614 25.171 58.474 12.814 10.548 24.615 12.333 30.52.905 7.963-15.411-21.294-51.272-24.786-59.379-1.66-3.851-2.175-10.549 3.778-13.578z"/></g><path d="m440.516 146.37c-4.512 9.086-9.982 16.658-14 22.097-13.722 18.553-35.304 27.918-42.928 30.421-7.613 2.514-18.348-7.077-19.141-15.545-1.174-12.475-3.585-21.541-6.274-30.081s.052-31.74.052-31.74c2.781-7.685-13.073-22.88-13.32-31.06-.196-6.48 1.968-14.392 4.09-20.48 36.767 17.112 68.301 43.598 91.521 76.388z" fill="#f3f3f3"/><path d="m424.713 170.788c.613-.759 1.218-1.528 1.803-2.32 4.018-5.439 9.488-13.011 14-22.097-23.22-32.79-54.754-59.276-91.521-76.387-1.546 4.437-3.104 9.838-3.765 14.952 33.269 21.316 60.726 50.898 79.483 85.852z" fill="#e4e4e4"/><path d="m163.027 201.327c-11.055-6.367-40.046-14.762-58.113-14.37-19.441.423-49.093 31.25-49.093 31.25.619 6.632 9.234 26.813 14.437 33.466 2.475 3.164 28.211 18.226 34.224 29.708s10.44 26.19 14.802 34.691c8.241 16.06 33.068 15.707 39.094 21.026 13.524 11.939 26.204 14.475 32.397 2.49 7.962-15.408-21.295-51.274-24.79-59.381-2.131-4.944-2.377-14.587 10.539-15.122 0 .001 11.016-49.64-13.497-63.758z" fill="#d67b42"/><path d="m165.985 280.208c-2.131-4.944-2.377-14.588 10.539-15.122 0 0 11.015-49.641-13.498-63.759-11.055-6.367-40.046-14.762-58.113-14.37-3.064.067-6.382.891-9.798 2.228 14.617 2.86 29.713 7.941 37.005 12.141 24.513 14.118 12.544 59.446 12.544 59.446-1.036 4.485-7.837 15.721-5.706 20.665 3.43 7.956 27.763 41.399 21.292 57.253 12.811 10.544 24.617 12.328 30.523.898 7.964-15.408-21.293-51.273-24.788-59.38z" fill="#be652b"/><path d="m512 294.632c0 27.381-22.72 49.449-50.339 48.381-25.062-.968-45.469-21.356-46.46-46.417-.83-21.007 11.725-39.197 29.836-46.705v-231.348c.001-10.241 8.303-18.543 18.544-18.543 10.241 0 18.543 8.302 18.543 18.543v231.348c17.545 7.273 29.876 24.57 29.876 44.741z" fill="#bdf9ff"/><path d="m482.125 247.932v-191.989h-37.087v191.984c0 1.152-.65 2.223-1.696 2.705-17.193 7.916-28.944 25.618-28.14 45.963.991 25.061 21.397 45.448 46.459 46.417 27.618 1.068 50.339-21 50.339-48.381 0-19.513-11.54-36.336-28.175-43.997-1.047-.482-1.7-1.549-1.7-2.702z" fill="#f75632"/><path d="m65.692 421.824c0 32.124-26.289 34.76-32.846 34.76s-32.846-2.636-32.846-34.76 29.219-64.994 32.846-64.994 32.846 32.87 32.846 64.994z" fill="#bdf9ff"/><path d="m32.846 356.83c-1.632 0-8.449 6.671-15.453 16.923 8.557 12.527 17.393 30.406 17.393 48.072 0 18.519-8.737 27.228-17.393 31.292 6.359 2.985 12.676 3.468 15.453 3.468 6.557 0 32.846-2.636 32.846-34.76 0-32.125-29.219-64.995-32.846-64.995z" fill="#8bf0ff"/><path d="m455.456 458.406c0 32.124-26.289 34.76-32.846 34.76s-32.846-2.636-32.846-34.76 29.219-64.994 32.846-64.994 32.846 32.87 32.846 64.994z" fill="#bdf9ff"/><path d="m422.61 393.412c-1.632 0-8.449 6.671-15.453 16.923 8.557 12.527 17.393 30.406 17.393 48.072 0 18.519-8.737 27.228-17.393 31.291 6.359 2.985 12.676 3.468 15.453 3.468 6.557 0 32.846-2.636 32.846-34.76s-29.219-64.994-32.846-64.994z" fill="#8bf0ff"/><path d="m340.429 291.125c0 32.124-26.289 34.76-32.846 34.76s-32.846-2.636-32.846-34.76 29.219-64.994 32.846-64.994 32.846 32.87 32.846 64.994z" fill="#bdf9ff"/><path d="m307.583 226.131c-1.632 0-8.449 6.671-15.453 16.923 8.557 12.527 17.393 30.406 17.393 48.072 0 18.519-8.737 27.228-17.393 31.292 6.359 2.985 12.676 3.468 15.453 3.468 6.557 0 32.846-2.636 32.846-34.76 0-32.125-29.219-64.995-32.846-64.995z" fill="#8bf0ff"/></g></svg>