<svg id="Capa_1" enable-background="new 0 0 497 497" height="512" viewBox="0 0 497 497" width="512" xmlns="http://www.w3.org/2000/svg"><g><path d="m0 367.464c0-3.329 1.397-6.493 3.815-8.781 41.594-39.382 116.618-40.844 160.375-2.051 23.2 20.56 55.65 32.38 87.34 32.38 23.11 0 45.82-6.29 64.25-20.04l24.12-18c44.737-33.39 114.034-29.845 153.409 6.96 2.388 2.232 3.691 5.39 3.691 8.659v68.634h-497z" fill="#7398d4"/><path d="m497 400.212v20c0-3.27-1.3-6.43-3.69-8.66-39.38-36.8-108.67-40.35-153.41-6.96l-24.12 18c-18.43 13.75-41.14 20.04-64.25 20.04-31.69 0-64.14-11.82-87.34-32.38-43.76-38.79-118.78-37.33-160.38 2.05-2.41 2.29-3.81 5.45-3.81 8.78v-20c0-3.33 1.4-6.49 3.81-8.78 41.6-39.38 116.62-40.84 160.38-2.05 23.2 20.56 55.65 32.38 87.34 32.38 23.11 0 45.82-6.29 64.25-20.04l24.12-18c44.74-33.39 114.03-29.84 153.41 6.96 2.39 2.23 3.69 5.39 3.69 8.66z" fill="#5a86cc"/><path d="m0 463.322c0 2.617 3.103 3.963 5.034 2.196 21.185-19.383 50.614-29.217 80.136-29.217 28.78 0 57.63 9.34 79.02 28.3 40.11 35.55 107.89 44.96 151.59 12.34l24.12-18c44.24-33.019 112.498-29.919 152.087 5.746 1.935 1.743 5.013.391 5.013-2.214v-46.913c-38.6-40.19-110.93-45.07-157.1-10.61l-8.875 6.516c-2.783 2.043-6.76.717-7.744-2.593-3.318-11.16-10.28-15.335-10.28-32.855 0-23.001 12-23.001 12-46.003 0-22.998-12-22.998-12-45.996 0-22.999 12-22.999 12-45.998h-140.001c0 22.999-12 22.999-12 45.998 0 22.998 12 22.998 12 45.996 0 23.001-12 23.001-12 46.003 0 18.837 8.048 24.259 10.962 38.238.915 4.388-3.904 7.705-7.642 5.231-4.276-2.83-9.142-6.227-12.131-8.877-45.13-40.01-123.52-37.2-164.19 5.88z" fill="#ccf49f"/><path d="m497 444.672v17.8c0 2.61-3.08 3.96-5.01 2.22-39.59-35.67-107.85-38.77-152.09-5.75l-24.12 18c-43.7 32.62-111.48 23.21-151.59-12.34-21.39-18.96-50.24-28.3-79.02-28.3-29.52 0-58.95 9.83-80.14 29.22-1.93 1.76-5.03.42-5.03-2.2v-17.8c21.62-19.39 51.66-29.22 81.79-29.22 29.38 0 58.82 9.34 80.66 28.3 40.94 35.55 110.12 44.96 154.72 12.34l24.62-18c45.14-33.01 114.8-29.92 155.21 5.73z" fill="#b3e59f"/><path d="m319 238.022h-140v-65.996c0-5.523-4.477-10-10-10l-105-.003-32-.001v-140h32 115c77.32 0 140 62.68 140 140z" fill="#9b9696"/><path d="m179 238.022v-66c0-5.523-4.477-10-10-10h-137l20-20h117c16.569 0 30 13.431 30 30v46z" fill="#736e6e"/><path d="m44 .022h-24c-11.046 0-20 8.954-20 20v144c0 11.046 8.954 20 20 20h24c11.046 0 20-8.954 20-20v-144c0-11.046-8.954-20-20-20z" fill="#736e6e"/><path d="m40 184.022h-20c-11.05 0-20-8.95-20-20v-144c0-11.05 8.95-20 20-20h20c-11.05 0-20 8.95-20 20v144c0 11.05 8.95 20 20 20z" fill="#5a5555"/><path d="m313.37 290.522c-.24-1.95-.37-4.1-.37-6.5 0-23 12-23 12-46h-140c0 23-12 23-12 46 .002 2.151.118 4.248.35 6.37h.006c1.977 16.859 11.644 18.979 11.644 39.62 0 23.01-12 23.01-12 46.01 0 18.83 8.05 24.26 10.96 38.24.41 1.95-.32 3.68-1.58 4.79.61.51 1.21 1.03 1.81 1.56 2.99 2.65 7.85 6.05 12.13 8.88 3.74 2.47 8.56-.85 7.64-5.23-2.91-13.98-10.96-19.41-10.96-38.24 0-23 12-23 12-46.01 0-22.99-12-22.99-12-45.99 0-.012 0-.025 0-.037.001-1.919 1.583-3.463 3.502-3.463z" fill="#b3e59f"/><path d="m340.5 251.522v-24c0-11.046-8.954-20-20-20h-144c-11.046 0-20 8.954-20 20v24c0 11.046 8.954 20 20 20h144c11.046 0 20-8.955 20-20z" fill="#736e6e"/><path d="m196.5 271.522h-20c-11.05 0-20-8.95-20-20v-24c0-11.05 8.95-20 20-20h20c-11.05 0-20 8.95-20 20v24c0 11.05 8.95 20 20 20z" fill="#5a5555"/><path d="m167 62.022h-68c-2.761 0-5-2.239-5-5v-35h78v35c0 2.761-2.239 5-5 5z" fill="#e3e0e4"/><path d="m172 37.022v20c0 2.76-2.24 5-5 5h-68c-2.76 0-5-2.24-5-5v-20c0 2.76 2.24 5 5 5h68c2.76 0 5-2.24 5-5z" fill="#d4cfd5"/></g></svg>