<?xml version="1.0" encoding="iso-8859-1"?>
<!-- Generator: Adobe Illustrator 19.0.0, SVG Export Plug-In . SVG Version: 6.00 Build 0)  -->
<svg version="1.1" id="Capa_1" xmlns="http://www.w3.org/2000/svg" xmlns:xlink="http://www.w3.org/1999/xlink" x="0px" y="0px"
	 viewBox="0 0 512.002 512.002" style="enable-background:new 0 0 512.002 512.002;" xml:space="preserve">
<path style="fill:#E1EFFB;" d="M209.624,352.42c175.16-58.699,283.192-149.018,301.225-164.806c1.467-1.285,1.543-3.539,0.164-4.918
	L329.307,0.988c-1.379-1.379-3.634-1.303-4.918,0.164C308.6,19.186,218.281,127.217,159.582,302.378L209.624,352.42z"/>
<path style="fill:#CCDFED;" d="M511.014,182.695l-32.984-32.984c1.379,1.379,1.303,3.634-0.164,4.918
	c-18.034,15.788-118.102,114.071-293.262,172.77l25.021,25.021c175.161-58.699,283.192-149.018,301.226-164.806
	C512.317,186.329,512.393,184.074,511.014,182.695z"/>
<path style="fill:#775146;" d="M99.599,490.155l96.35-125.633l-48.471-48.471l-125.633,96.35
	C-4.865,432.762-7.499,472,16.25,495.749l0,0C40,519.5,79.238,516.866,99.599,490.155z M39.451,472.551
	c-7.773-7.773-7.773-20.377,0-28.15s20.376-7.773,28.15,0c7.773,7.773,7.773,20.377,0,28.15
	C59.827,480.324,47.224,480.324,39.451,472.551z"/>
<path style="fill:#534741;" d="M99.599,490.156l96.35-125.633l-24.235-24.235L72.03,451.149c2.829,7.155,1.357,15.616-4.429,21.403
	c-6.754,6.754-17.151,7.632-24.861,2.649c-12.548,4.897-26.608,5.111-39.362,0.441c2.677,7.311,6.955,14.192,12.874,20.111l0,0
	C40,519.5,79.238,516.866,99.599,490.156z"/>
<path style="fill:#F3FAFF;" d="M493.054,202.325c8.643-6.831,14.617-11.928,17.795-14.711c1.467-1.285,1.543-3.54,0.164-4.919
	L329.307,0.988c-1.379-1.379-3.634-1.303-4.919,0.164c-2.783,3.179-7.88,9.152-14.711,17.795L493.054,202.325z"/>
<path style="fill:#E1EFFB;" d="M511.589,183.498c-0.153-0.286-0.333-0.561-0.575-0.802l-32.984-32.984
	c1.379,1.379,1.303,3.634-0.164,4.918c-3.177,2.781-8.911,8.131-17.142,15.366l32.329,32.329c0.116-0.092,0.237-0.187,0.352-0.278
	c0.229-0.181,0.454-0.36,0.68-0.539c0.477-0.379,0.946-0.752,1.406-1.12c0.185-0.148,0.374-0.298,0.556-0.444
	c0.599-0.48,1.183-0.949,1.752-1.409c0.186-0.151,0.367-0.297,0.55-0.445c0.41-0.332,0.812-0.658,1.206-0.978
	c0.2-0.163,0.4-0.326,0.596-0.485c0.512-0.418,1.013-0.828,1.496-1.225c0.144-0.118,0.279-0.23,0.42-0.346
	c0.378-0.312,0.75-0.619,1.11-0.918c0.172-0.143,0.342-0.284,0.51-0.424c0.353-0.294,0.696-0.58,1.03-0.86
	c0.114-0.095,0.233-0.194,0.344-0.288c0.414-0.347,0.809-0.68,1.193-1.004c0.15-0.126,0.294-0.249,0.439-0.372
	c0.271-0.23,0.535-0.454,0.79-0.671c0.12-0.102,0.243-0.207,0.359-0.306c0.34-0.291,0.667-0.571,0.977-0.837
	c0.104-0.089,0.2-0.172,0.3-0.259c0.223-0.192,0.439-0.379,0.645-0.557c0.108-0.094,0.217-0.188,0.32-0.278
	c0.236-0.205,0.463-0.403,0.674-0.588c0.029-0.026,0.063-0.055,0.092-0.08C512.059,186.555,512.307,184.841,511.589,183.498z"/>
<path style="fill:#927266;" d="M215.017,347.173l-50.188-50.188c-2.211-2.211-5.796-2.211-8.007,0l-13.656,13.656
	c-2.211,2.211-2.211,5.796,0,8.007l50.188,50.188c2.211,2.211,5.796,2.211,8.007,0l13.656-13.656
	C217.228,352.968,217.228,349.384,215.017,347.173z"/>
<path style="fill:#82635A;" d="M204.186,358.004l-50.188-50.188c-2.211-2.211-2.211-5.796,0-8.007l-10.831,10.831
	c-2.211,2.211-2.211,5.796,0,8.007l50.188,50.188c2.211,2.211,5.796,2.211,8.007,0l10.831-10.832
	C209.981,360.215,206.397,360.215,204.186,358.004z"/>
<g>
</g>
<g>
</g>
<g>
</g>
<g>
</g>
<g>
</g>
<g>
</g>
<g>
</g>
<g>
</g>
<g>
</g>
<g>
</g>
<g>
</g>
<g>
</g>
<g>
</g>
<g>
</g>
<g>
</g>
</svg>
