<svg height="512pt" viewBox="-22 0 512 512" width="512pt" xmlns="http://www.w3.org/2000/svg"><path d="m20.585938 43.207031h425.964843v407.179688h-425.964843zm0 0" fill="#d1956c"/><path d="m446.550781 43.210938v407.171874h-425.964843v-24.5h380.933593c10.054688 0 18.210938-8.152343 18.210938-18.210937v-364.460937zm0 0" fill="#b57756"/><path d="m387.753906 403.4375h-308.375c-5.277344 0-9.554687-4.277344-9.554687-9.550781v-294.179688c0-5.277343 4.277343-9.554687 9.554687-9.554687h308.375c5.277344 0 9.554688 4.28125 9.554688 9.554687v294.179688c0 5.273437-4.277344 9.550781-9.554688 9.550781zm0 0" fill="#c5dbff"/><path d="m397.304688 99.714844v294.164062c0 5.28125-4.269532 9.5625-9.550782 9.5625h-29.972656c5.277344 0 9.558594-4.28125 9.558594-9.5625v-294.164062c0-5.28125-4.28125-9.5625-9.558594-9.5625h29.972656c5.28125 0 9.550782 4.28125 9.550782 9.5625zm0 0" fill="#9ecaff"/><path d="m397.308594 225.296875h-135.582032c-3.933593 0-7.125-3.191406-7.125-7.125v-128.019531h-42.070312v128.019531c0 3.933594-3.1875 7.125-7.125 7.125h-135.582031v43h135.582031c3.9375 0 7.125 3.191406 7.125 7.125v128.015625h42.070312v-128.015625c0-3.933594 3.191407-7.125 7.125-7.125h135.582032zm0 0" fill="#b2693f"/><path d="m367.339844 225.296875h29.96875v43h-29.96875zm0 0" fill="#9e5632"/><g fill="#fec608"><path d="m457.960938 50.570312h-448.785157c-5.070312 0-9.175781-4.105468-9.175781-9.175781v-32.21875c0-5.070312 4.105469-9.175781 9.175781-9.175781h448.785157c5.066406 0 9.175781 4.105469 9.175781 9.175781v32.222657c-.003907 5.066406-4.109375 9.171874-9.175781 9.171874zm0 0"/><path d="m457.960938 512h-448.785157c-5.070312 0-9.175781-4.105469-9.175781-9.175781v-46.539063c0-5.066406 4.105469-9.171875 9.175781-9.171875h448.785157c5.066406 0 9.175781 4.105469 9.175781 9.171875v46.539063c-.003907 5.070312-4.109375 9.175781-9.175781 9.175781zm0 0"/></g></svg>