<svg id="Layer_1" enable-background="new 0 0 510.525 510.525" height="512" viewBox="0 0 510.525 510.525" width="512" xmlns="http://www.w3.org/2000/svg"><g><g><path d="m255.263.525c-31.431 0-58.996 5.678-81.953 13.401l-85.538 80.393c-1.003 8.196-1.625 16.189-1.625 23.112 0 69.165 28.657 131.878 74.493 177.809h346.564c1.501-9.667 3.058-23.529 3.058-39.715.001-140.833-114.167-255-254.999-255z" fill="#c1f8f4"/><path d="m90.721 110.204c0-5.415.17-10.789.504-16.119l-35.279 2.394c-34.843 43.605-55.683 98.893-55.683 159.046 0 13.51 1.06 26.772 3.084 39.715h166.922c-48.991-46.469-79.548-112.182-79.548-185.036z" fill="#93ede7"/></g><g><g><path d="m404.722 281.719c6.464-11.897 10.136-25.531 10.136-40.023 0-46.367-37.588-83.956-83.955-83.956-32.208 0-60.181 18.137-74.261 44.755-9.862-4.069-20.67-6.315-32.001-6.315-46.367 0-83.955 37.588-83.955 83.955 0 1.268.028 2.528.084 3.782-16.081 7.021-27.321 23.064-27.321 41.733 0 25.137 20.378 45.515 45.515 45.515h233.816c25.137 0 45.515-20.378 45.515-45.515 0-21.004-14.228-38.685-33.573-43.931z" fill="#fff"/></g></g><g><g><path d="m55.958 96.488c2.43.982 5.08 1.536 7.862 1.536h107.909c11.601 0 21.006-9.405 21.006-21.006 0-9.694-6.567-17.854-15.494-20.275 2.983-5.491 4.678-11.783 4.678-18.471 0-9.222-3.227-17.687-8.607-24.34-48.713 16.388-76.683 41.975-76.796 42.038-14.99 11.942-28.594 25.546-40.558 40.518z" fill="#dafffb"/></g></g><g><g><g><g><path d="m163.915 128.048c-25.925 25.925-18.529 75.354-18.529 75.354s49.429 7.396 75.354-18.529 18.529-75.354 18.529-75.354-49.429-7.396-75.354 18.529z" fill="#5ea55c"/></g></g></g><g><g><g><g><path d="m135.452 317.3c-5.523 0-10-4.478-10-10v-184.293c0-5.522 4.477-10 10-10s10 4.478 10 10v184.293c0 5.522-4.477 10-10 10z" fill="#3d6b73"/></g></g></g></g><g><g><g><path d="m115.947 183.151c25.925 25.925 18.529 75.354 18.529 75.354s-49.429 7.396-75.354-18.529-18.529-75.354-18.529-75.354 49.429-7.396 75.354 18.529z" fill="#4f8980"/></g></g></g></g><g><path d="m167.283 311.097h-63.663v-30.226c0-5.445 4.414-9.859 9.859-9.859h43.944c5.445 0 9.859 4.414 9.859 9.859v30.226z" fill="#785252"/></g><g><g><g><g><path d="m408.924 128.048c-25.925 25.925-18.529 75.354-18.529 75.354s49.429 7.396 75.354-18.529 18.529-75.354 18.529-75.354-49.429-7.396-75.354 18.529z" fill="#5ea55c"/></g></g></g><g><g><g><g><path d="m380.462 317.3c-5.523 0-10-4.478-10-10v-297.3c0-5.522 4.477-10 10-10s10 4.478 10 10v297.3c0 5.522-4.477 10-10 10z" fill="#3d6b73"/></g></g></g></g><g><g><g><path d="m360.957 183.151c25.925 25.925 18.529 75.354 18.529 75.354s-49.429 7.396-75.354-18.529-18.529-75.354-18.529-75.354 49.429-7.396 75.354 18.529z" fill="#4f8980"/></g></g></g><g><g><g><path d="m360.957 46.142c25.925 25.925 18.529 75.354 18.529 75.354s-49.429 7.396-75.354-18.529-18.529-75.354-18.529-75.354 49.429-7.396 75.354 18.529z" fill="#4f8980"/></g></g></g></g><g><g><g><path d="m100.762 293.452c0 78.509 63.644 142.154 142.154 142.154h175.414c11.562 0 22.619-4.943 30.17-13.699.041-.048.082-.095.123-.143 27.08-31.449 46.667-69.663 55.839-112.001.09-.549 1.571-6.547 3.013-16.311z" fill="#785252"/></g></g></g><g><g><g><path d="m355.478 433.208c-126.915 0-232.25-60.456-252.409-139.756h-99.995c18.319 122.843 124.245 217.073 252.189 217.073 76.863 0 146.383-34.204 193.357-88.764-28.867 7.385-60.278 11.447-93.142 11.447z" fill="#664545"/></g></g></g><g><g><g><path d="m183.33 362.147h-64.734c-5.523 0-10-4.478-10-10s4.477-10 10-10h64.734c5.523 0 10 4.478 10 10s-4.477 10-10 10z" fill="#664545"/></g></g></g><g><g><g><path d="m249.934 362.147h-24.088c-5.523 0-10-4.478-10-10s4.477-10 10-10h24.088c5.523 0 10 4.478 10 10s-4.477 10-10 10z" fill="#664545"/></g></g></g><g><g><g><path d="m345.825 404.86h-61.199c-5.523 0-10-4.478-10-10s4.477-10 10-10h61.199c5.523 0 10 4.478 10 10s-4.477 10-10 10z" fill="#664545"/></g></g></g><g><g><g><path d="m438.337 343.964h-47.917c-5.523 0-10-4.478-10-10s4.477-10 10-10h47.917c5.523 0 10 4.478 10 10s-4.477 10-10 10z" fill="#664545"/></g></g></g><g><g><path d="m134.475 264.505c-1.536 0-3.071-.586-4.243-1.758l-62.616-62.617c-2.343-2.343-2.343-6.142 0-8.484 2.343-2.344 6.143-2.344 8.485 0l62.617 62.617c2.343 2.343 2.343 6.142 0 8.484-1.171 1.172-2.707 1.758-4.243 1.758z" fill="#3d6b73"/></g></g><g><g><path d="m140.174 214.598c-1.539 0-3.077-.588-4.25-1.764-2.339-2.348-2.333-6.146.014-8.485l5.212-5.195 58.202-58.202c2.343-2.344 6.143-2.344 8.485 0 2.343 2.343 2.343 6.142 0 8.484l-63.427 63.411c-1.171 1.168-2.704 1.751-4.236 1.751z" fill="#3d6b73"/></g></g><g><g><path d="m379.486 264.505c-1.536 0-3.071-.586-4.243-1.758l-64.26-64.26c-2.343-2.343-2.343-6.142 0-8.484 2.343-2.344 6.143-2.344 8.485 0l64.26 64.26c2.343 2.343 2.343 6.142 0 8.484-1.171 1.172-2.707 1.758-4.242 1.758z" fill="#3d6b73"/></g></g><g><g><path d="m385.2 214.598c-1.536 0-3.071-.586-4.243-1.758-2.343-2.343-2.343-6.142 0-8.484l67.945-67.945c2.343-2.344 6.143-2.344 8.485 0 2.343 2.343 2.343 6.142 0 8.484l-67.945 67.945c-1.171 1.172-2.707 1.758-4.242 1.758z" fill="#3d6b73"/></g></g><g><g><path d="m379.486 127.497c-1.536 0-3.071-.586-4.243-1.758l-64.26-64.26c-2.343-2.343-2.343-6.142 0-8.484 2.343-2.344 6.143-2.344 8.485 0l64.26 64.26c2.343 2.343 2.343 6.142 0 8.484-1.171 1.172-2.707 1.758-4.242 1.758z" fill="#3d6b73"/></g></g><g><path d="m419.335 317.929h-77.746v-36.913c0-6.65 5.391-12.04 12.04-12.04h53.665c6.65 0 12.04 5.391 12.04 12.04v36.913z" fill="#785252"/></g><g><path d="m150.963 325.429h-60.11c-4.142 0-7.5-3.357-7.5-7.5s3.358-7.5 7.5-7.5h60.11c4.142 0 7.5 3.357 7.5 7.5s-3.358 7.5-7.5 7.5z" fill="#523838"/></g><g><path d="m226.75 412.36h-28.296c-4.142 0-7.5-3.357-7.5-7.5s3.358-7.5 7.5-7.5h28.296c4.142 0 7.5 3.357 7.5 7.5s-3.358 7.5-7.5 7.5z" fill="#523838"/></g><g><path d="m283.557 472.054h-28.296c-4.142 0-7.5-3.357-7.5-7.5s3.358-7.5 7.5-7.5h28.296c4.142 0 7.5 3.357 7.5 7.5s-3.358 7.5-7.5 7.5z" fill="#523838"/></g><g><path d="m101.682 402.36h-28.295c-4.142 0-7.5-3.357-7.5-7.5s3.358-7.5 7.5-7.5h28.295c4.142 0 7.5 3.357 7.5 7.5s-3.358 7.5-7.5 7.5z" fill="#523838"/></g><g><path d="m323.366 328.835h-32.735c-4.142 0-7.5-3.357-7.5-7.5s3.358-7.5 7.5-7.5h32.735c4.142 0 7.5 3.357 7.5 7.5s-3.358 7.5-7.5 7.5z" fill="#523838"/></g><g><path d="m341.589 371.648h-18.223c-4.142 0-7.5-3.357-7.5-7.5s3.358-7.5 7.5-7.5h18.223c4.142 0 7.5 3.357 7.5 7.5s-3.358 7.5-7.5 7.5z" fill="#523838"/></g><g><path d="m437.337 402.36h-35.366c-4.142 0-7.5-3.357-7.5-7.5s3.358-7.5 7.5-7.5h35.366c4.142 0 7.5 3.357 7.5 7.5s-3.358 7.5-7.5 7.5z" fill="#523838"/></g></g></svg>