<svg id="Capa_1" enable-background="new 0 0 512 512" height="512" viewBox="0 0 512 512" width="512" xmlns="http://www.w3.org/2000/svg"><g><g><path d="m303.833 369.513s-42.303 51.649-101.88 32.682c-59.578-18.967-86.499-78.762-39.497-92.852z" fill="#4a7aff"/></g><g><path d="m419.671 195.958s-64.911-109.725-167.054-87.322-154.289 131.355-77.103 169.734z" fill="#4a98f7"/></g><g><path d="m304.142 164.653c-67.325 0-82.958-45.787-82.975-45.836-80.505 35.089-114.444 125.348-45.653 159.553l128.628-43.417z" fill="#4a7aff"/></g><g><path d="m55.54 206.478c-7.674-5.429-18.063-4.998-25.218 1.098-6.063 5.165-13.138 12.559-18.93 22.419v85.822c5.791 9.859 12.867 17.254 18.929 22.419 7.156 6.096 17.544 6.526 25.218 1.098l93.902-66.427z" fill="#414952"/></g><g><path d="m60.163 264.495-48.77-34.501c-6.508 11.078-11.393 25.267-11.393 42.911s4.885 31.833 11.392 42.911l48.77-34.501c5.804-4.105 5.804-12.715.001-16.82z" fill="#fff566"/></g><g><path d="m505.504 287.834c8.662-8.139 8.662-21.886 0-30.025-31.619-29.71-109.856-93.157-201.362-93.157s-169.743 63.448-201.362 93.158c-8.662 8.139-8.662 21.886 0 30.025 31.619 29.71 109.856 93.157 201.362 93.157s169.742-63.448 201.362-93.158z" fill="#65b1fc"/></g><g><path d="m304.142 380.991c42.437 0 82.016-13.649 115.42-31.247-259.928-.001-280.808-121.761-280.856-122.042-15.03 11.238-27.24 21.947-35.926 30.108-8.662 8.138-8.662 21.886 0 30.025 31.619 29.709 109.856 93.156 201.362 93.156z" fill="#4a98f7"/></g><g><path d="m419.667 212.956v-17.001c-33.425-17.625-73.043-31.303-115.525-31.303-91.506 0-169.743 63.447-201.362 93.157-8.662 8.138-8.662 21.886 0 30.025 3.255 3.058 7.012 6.478 11.218 10.146h135.981c9.391 0 17.005-7.613 17.005-17.005 0-9.391-7.613-17.005-17.005-17.005h-40.035c-9.391 0-17.005-7.613-17.005-17.005 0-9.391 7.613-17.005 17.005-17.005h192.717c9.392.001 17.006-7.612 17.006-17.004z" fill="#636978"/></g><g><path d="m113.998 297.98h80.067c-48.992-33.191-55.333-70.121-55.36-70.278-15.03 11.238-27.24 21.947-35.926 30.108-8.662 8.138-8.662 21.886 0 30.025 3.256 3.058 7.012 6.478 11.219 10.145z" fill="#555a66"/></g><g><path d="m317.234 272.822c0 25.898 17.703 47.576 42.008 53.118 6.958 1.587 14.245-.579 19.3-5.617l36.51-36.379c6.158-6.136 6.158-16.108 0-22.244l-36.51-36.379c-5.056-5.038-12.342-7.203-19.3-5.617-24.305 5.542-42.008 27.22-42.008 53.118z" fill="#ffff9c"/></g><g><path d="m352.747 221.624c-20.9 7.627-35.514 27.67-35.514 51.198 0 25.898 17.703 47.576 42.008 53.118 6.958 1.587 14.245-.579 19.3-5.617l5.674-5.653c-47.796-25.565-31.48-92.997-31.468-93.046z" fill="#fff566"/></g><g><g><path d="m232.228 158.598c-3.251 0-6.247-2.131-7.199-5.412l-2.698-9.297c-1.154-3.978 1.135-8.139 5.112-9.293 3.978-1.153 8.139 1.133 9.294 5.112l2.698 9.297c1.154 3.978-1.135 8.139-5.112 9.293-.699.203-1.403.3-2.095.3z" fill="#65b1fc"/></g><g><path d="m203.462 170.879c-2.121 0-4.229-.895-5.712-2.635l-4.219-4.95c-2.687-3.153-2.31-7.886.843-10.573 3.153-2.688 7.887-2.309 10.573.843l4.219 4.95c2.687 3.153 2.31 7.886-.843 10.573-1.412 1.204-3.141 1.792-4.861 1.792z" fill="#65b1fc"/></g><g><g><path d="m451.763 271.134c-4.143 0-7.5-3.358-7.5-7.5v-12.362c0-4.142 3.357-7.5 7.5-7.5s7.5 3.358 7.5 7.5v12.362c0 4.142-3.358 7.5-7.5 7.5z" fill="#636978"/></g></g><g><g><path d="m367.679 266.145c-.643 0-1.296-.083-1.946-.257l-14.926-4c-4.001-1.072-6.375-5.185-5.303-9.186 1.071-4.001 5.183-6.373 9.186-5.303l14.926 4c4.001 1.072 6.375 5.185 5.303 9.186-.898 3.35-3.929 5.56-7.24 5.56z" fill="#ffe733"/></g><g><path d="m352.743 298.502c-3.312 0-6.342-2.21-7.239-5.561-1.072-4.001 1.302-8.113 5.303-9.186l14.926-3.999c4.003-1.07 8.114 1.303 9.186 5.304s-1.302 8.113-5.303 9.186l-14.926 3.999c-.651.174-1.304.257-1.947.257z" fill="#ffe733"/></g></g></g></g></svg>