<svg id="Capa_1" enable-background="new 0 0 512 512" height="512" viewBox="0 0 512 512" width="512" xmlns="http://www.w3.org/2000/svg"><g><path d="m68.112 415c-8.315 0-16.086-4.06-20.903-10.837-29.729-41.817-47.209-92.949-47.209-148.163 0-141.385 114.615-256 256-256s256 114.615 256 256c0 7.805-.349 15.528-1.033 23.155-6.908 77.054-71.993 135.845-149.357 135.845z" fill="#fa9084"/><path d="m480.766 251.99c0 119.305-96.716 216.021-216.021 216.021s-216.022-96.716-216.022-216.021 96.716-216.021 216.022-216.021 216.021 96.716 216.021 216.021z" fill="#faa598"/><path d="m329.745 88.02v-28.02h-110v28c-1.893 0-36.534.066-38.41.198-19.336 1.357-37.612 9.643-51.407 23.438l-60.303 60.304c-15.133 15.134-23.634 35.659-23.635 57.06v173.434c46.271 66.238 123.081 109.566 210.01 109.566 1.288 0 2.573-.01 3.857-.028 88.327-1.304 136.548-74.11 136.548-162.446v-152.143l22.34-17.383v-1.128c0-49.561-39.677-89.856-89-90.852zm-124.772 71.071c0 2.602-1.033 5.096-2.873 6.936l-69.585 69.585c-1.839 1.839-4.334 2.873-6.936 2.873h-33.553c-5.417 0-9.809-4.392-9.809-9.809 0-2.602 1.033-5.097 2.873-6.936l101.245-101.244c1.839-1.84 4.334-2.873 6.936-2.873h1.894c5.417 0 9.809 4.392 9.809 9.809v31.659z" fill="#3d4ec6"/><path d="m255.973 60v25.383c0 15.61-12.535 30.652-28.144 30.894-.021 0-.039 0-.055 0-28.998.583-33.051-1.446-41.44 4.219l-101.244 101.243c-1.839 1.839-2.873 4.334-2.873 6.936 0 2.932.002 22.45.002 30.282l-.001 185.023c-13.506-12.492-25.663-26.422-36.229-41.546l.001-173.434c0-21.401 8.502-41.926 23.635-57.06l60.302-60.304c13.795-13.796 32.071-22.081 51.407-23.438 1.876-.132 36.518-.198 38.411-.198v-28z" fill="#3342ae"/><path d="m324.745 180v170h-31c-8.284 0-15-6.716-15-15v-140c0-8.284 6.716-15 15-15z" fill="#c8e2fd"/><path d="m418.745 180v170h-101c-8.284 0-15-6.716-15-15v-140c0-8.284 6.716-15 15-15z" fill="#e9f3fe"/><path d="m255.973 10v50c0 5.523-4.477 10-10 10h-27.229c-5.523 0-10-4.477-10-10v-50c0-5.523 4.477-10 10-10h27.229c5.523 0 10 4.477 10 10z" fill="#a7d0fc"/><path d="m340.745 10v50c0 5.523-4.477 10-10 10h-92c-5.523 0-10-4.477-10-10v-50c0-5.523 4.477-10 10-10h92c5.523 0 10 4.477 10 10z" fill="#c8e2fd"/><path d="m269.745 15v40c0 2.761-2.239 5-5 5s-5-2.239-5-5v-40c0-2.761 2.239-5 5-5s5 2.239 5 5zm-25-5c-2.761 0-5 2.239-5 5v40c0 2.761 2.239 5 5 5s5-2.239 5-5v-40c0-2.761-2.239-5-5-5zm-20 0c-2.761 0-5 2.239-5 5v40c0 2.761 2.239 5 5 5s5-2.239 5-5v-40c0-2.761-2.239-5-5-5zm100 0c-2.761 0-5 2.239-5 5v40c0 2.761 2.239 5 5 5s5-2.239 5-5v-40c0-2.761-2.239-5-5-5zm-20 0c-2.761 0-5 2.239-5 5v40c0 2.761 2.239 5 5 5s5-2.239 5-5v-40c0-2.761-2.239-5-5-5zm-20 0c-2.761 0-5 2.239-5 5v40c0 2.761 2.239 5 5 5s5-2.239 5-5v-40c0-2.761-2.239-5-5-5z" fill="#86befb"/><path d="m395.985 218.883h-40c-2.761 0-5 2.239-5 5 0 2.762 2.239 5 5 5h40c2.761 0 5-2.238 5-5 0-2.761-2.239-5-5-5zm-45-15c0-2.761 2.239-5 5-5h40c2.761 0 5 2.239 5 5 0 2.762-2.239 5-5 5h-40c-2.762 0-5-2.238-5-5zm45 35h-40c-2.761 0-5 2.239-5 5 0 2.762 2.239 5 5 5h40c2.761 0 5-2.238 5-5 0-2.761-2.239-5-5-5z" fill="#a6aee5"/><path d="m328.817 245.521c-6.651 6.65-17.433 6.65-24.084 0-5.257-5.257-6.496-13.317-3.061-19.911l13.329-25.582c.747-1.435 2.8-1.435 3.547 0l13.329 25.582c3.436 6.594 2.197 14.654-3.06 19.911z" fill="#76b6fa"/><path d="m328.817 245.521c-6.651 6.65-17.433 6.65-24.084 0-4.515-4.515-6.066-11.098-4.238-17.043.797 2.599 2.222 5.027 4.238 7.043 6.651 6.65 17.433 6.65 24.084 0 2.016-2.016 3.441-4.444 4.238-7.043 1.828 5.946.277 12.528-4.238 17.043z" fill="#55a4f9"/><path d="m507.315 305c-5.181 26.728-14.519 51.972-27.315 75.032-1.209 2.179-13.645-2.171-14.915-.032-18.309 30.836-42.908 57.499-72.029 78.22-2.313 1.646 6.541 9.763 4.172 11.333-40.48 26.824-89.03 42.447-141.228 42.447-1.003 0-2.005-.006-3.005-.018l-62.995-206.982z" fill="#24d3b5"/><path d="m291.022 509.624c-11.45 1.566-23.142 2.376-35.022 2.376-1.003 0-2.005-.006-3.005-.018l-62.995-206.982h38.745z" fill="#20b7a1"/><path d="m238.115 275c11.023 0 19.362 9.862 17.664 20.754-.021.133-.042.267-.063.4-1.711 10.872-11.145 18.846-22.152 18.846h-33.564c-5.523 0-10-4.477-10-10v-20c0-5.523 4.477-10 10-10z" fill="#24d3b5"/><path d="m486.716 315h-253.014c-5.523 0-10-4.477-10-10v-20c0-5.523 4.477-10 10-10h277.603c-.524 7.136-1.34 14.191-2.436 21.153-1.713 10.872-11.147 18.847-22.153 18.847z" fill="#93e2c6"/><path d="m255.803 306.88c-.013.066-.027.133-.04.199-.936 4.624-5.046 7.92-9.764 7.92h-65.656c-5.326 0-9.977-4.019-10.321-9.335-.377-5.823 4.235-10.664 9.978-10.664h66.006c6.274 0 11.037 5.73 9.797 11.88z" fill="#93e2c6"/><path d="m509.048 295c-1.033 6.757-2.33 13.428-3.881 20h-284.691c-5.523 0-10-4.477-10-10s4.477-10 10-10z" fill="#adebdc"/><path d="m380 350v109.553c0 5.523-4.477 10-10 10h-50c-5.523 0-10-4.477-10-10v-109.553c0-5.523 4.477-10 10-10h50c5.523 0 10 4.477 10 10z" fill="#ffd993"/><path d="m480 350v30.032c-20.021 36.08-48.505 66.813-82.772 89.521h-57.228c-5.523 0-10-4.477-10-10v-109.553c0-5.523 4.477-10 10-10h130c5.523 0 10 4.477 10 10z" fill="#ffe7c0"/><path d="m432.468 410h28.049c-2.564 3.4-5.212 6.735-7.939 10h-20.11c-2.761 0-5-2.238-5-5 0-2.761 2.239-5 5-5zm0-30h28.559c2.761 0 5-2.238 5-5 0-2.761-2.239-5-5-5h-28.559c-2.761 0-5 2.239-5 5 0 2.762 2.239 5 5 5zm28.559 10h-28.559c-2.761 0-5 2.239-5 5 0 2.762 2.239 5 5 5h28.559c2.761 0 5-2.238 5-5 0-2.761-2.239-5-5-5z" fill="#ffc14f"/><path d="m409.67 440h-80.345c-3.99 0-6.373-4.444-4.165-7.767l40.172-60.462c1.978-2.978 6.351-2.978 8.329 0l40.172 60.462c2.209 3.323-.173 7.767-4.163 7.767z" fill="#ffc14f"/><path d="m395.725 430h-52.455c-2.605 0-4.161-2.901-2.719-5.071l26.228-39.475c1.292-1.944 4.146-1.944 5.438 0l26.228 39.475c1.441 2.17-.115 5.071-2.72 5.071z" fill="#ffa90b"/><path d="m374.497 385v20c0 2.761-2.239 5-5 5s-5-2.239-5-5v-20c0-2.761 2.239-5 5-5 2.762 0 5 2.239 5 5zm-5 35c-2.761 0-5 2.239-5 5s2.239 5 5 5c2.761 0 5-2.239 5-5s-2.238-5-5-5z" fill="#fffac1"/></g></svg>