<svg id="Capa_1" enable-background="new 0 0 512 512" height="512" viewBox="0 0 512 512" width="512" xmlns="http://www.w3.org/2000/svg"><g><path d="m428.77 67.1h-345.54c8.23-7.54 16.95-14.53 26.12-20.95 41.54-29.08 92.1-46.15 146.65-46.15s105.11 17.07 146.65 46.15c9.16 6.41 17.89 13.42 26.12 20.95z" fill="#78c2a4"/><path d="m512 256c0 28.28-4.59 55.49-13.06 80.93-9.78 29.38-77.54 43.142-96.602 66.705s10.572 56.925-15.598 72.495c-38.27 22.79-82.98 35.87-130.74 35.87-58.26 0-111.98-19.47-155-52.25-35.4-26.96-63.56-62.95-81.05-104.52-12.85-30.52-19.95-64.04-19.95-99.23 0-61.66 21.8-118.23 58.12-162.42 7.74-9.42 16.13-18.27 25.11-26.48h345.54c34.15 31.25 59.8 71.64 73.07 117.29 6.62 22.72 10.16 46.75 10.16 71.61z" fill="#b3e59f"/><path d="m134.21 251.56c-9.05 9.05-14.65 21.55-14.65 35.36 0 27.62 22.39 50.01 50.01 50.01h329.37c-19.56 58.76-59.86 108.06-112.2 139.2h-216.65c-24.85 0-48.32-5.9-69.09-16.38-14.69-7.4-28.03-17.1-39.55-28.62-20.44-20.44-35.15-46.61-41.5-75.9-2.29-10.55-3.5-21.5-3.5-32.74 0-84.85 68.79-153.64 153.64-153.64h143.84c10.39 0 19.81-4.21 26.62-11.02s11.02-16.22 11.02-26.61c0-20.79-16.85-37.64-37.64-37.64h-255.81c14.82-18.04 32.06-34.02 51.23-47.43h307.27c26.34 0 50.18 10.67 67.44 27.93s27.94 41.11 27.94 67.45c0 15.41-3.66 29.97-10.16 42.86-15.68 31.15-47.95 52.52-85.22 52.52h-247.05c-13.81 0-26.31 5.6-35.36 14.65z" fill="#707dd3"/><g><path d="m116.968 442.988-4.791-2.766 4.791-2.766c4.79-2.766 6.432-8.891 3.666-13.682-2.766-4.791-8.891-6.432-13.682-3.666l-4.791 2.766v-5.532c0-5.531-4.484-10.016-10.016-10.016s-10.016 4.484-10.016 10.016v5.532l-4.791-2.766c-4.79-2.766-10.916-1.125-13.682 3.666-2.766 4.791-1.124 10.916 3.666 13.682l4.791 2.766-4.791 2.766c-4.79 2.766-6.432 8.891-3.666 13.682s8.891 6.432 13.682 3.666l14.806-8.548 14.806 8.548c4.79 2.766 10.916 1.125 13.682-3.666 2.768-4.791 1.127-10.916-3.664-13.682z" fill="#b3e59f"/><g fill="#78c2a4"><path d="m79.638 437.455 4.79 2.76-4.79 2.77c-4.79 2.77-6.43 8.89-3.66 13.68.68 1.18 1.57 2.18 2.6 2.96l-1.24.71c-4.79 2.76-10.91 1.12-13.68-3.67-2.76-4.79-1.12-10.91 3.67-13.68l4.79-2.77-4.79-2.76c-3.21-1.86-5.01-5.23-5.01-8.69 0-1.69.43-3.41 1.34-4.99 2.77-4.79 8.89-6.43 13.68-3.67l1.24.71c-1.03.78-1.92 1.78-2.6 2.96-.91 1.58-1.35 3.3-1.35 5 0 3.459 1.8 6.82 5.01 8.68z"/><path d="m98.308 409.445c-2.35 1.82-3.86 4.68-3.86 7.89v12.239l-12.32-6.699v-5.54c0-5.53 4.49-10.01 10.02-10.01 2.33-.001 4.47.79 6.16 2.12z"/></g></g><g><path d="m152.787 451.188h-56.908c-16.793 0-30.406 13.613-30.406 30.406 0 16.793 13.613 30.406 30.406 30.406h56.908c16.793 0 30.406-13.613 30.406-30.406 0-16.793-13.613-30.406-30.406-30.406z" fill="#efecef"/><path d="m180.339 494.44c-4.83 10.37-15.35 17.56-27.55 17.56h-56.91c-8.4 0-16-3.4-21.5-8.9-5.5-5.51-8.91-13.11-8.91-21.51 0-15.91 12.23-28.96 27.79-30.28-1.83 3.9-2.85 8.26-2.85 12.85 0 8.4 3.41 16 8.91 21.5s13.1 8.9 21.5 8.9h56.91c.88 0 1.75-.04 2.61-.12z" fill="#dddaec"/></g><g><path d="m205.89 468.813h-40.415c-11.926 0-21.594 9.668-21.594 21.594 0 11.926 9.668 21.594 21.594 21.594h40.415c11.926 0 21.594-9.668 21.594-21.594 0-11.926-9.668-21.594-21.594-21.594z" fill="#efecef"/><path d="m225.457 499.529c-3.43 7.365-10.901 12.471-19.565 12.471h-40.416c-5.965 0-11.363-2.415-15.269-6.32-3.906-3.913-6.328-9.31-6.328-15.276 0-11.299 8.685-20.567 19.736-21.504-1.3 2.77-2.024 5.866-2.024 9.126 0 5.965 2.422 11.363 6.328 15.269s9.303 6.32 15.269 6.32h40.416c.625 0 1.243-.029 1.853-.086z" fill="#dddaec"/></g><g><path d="m401.527 300.547h-29.212c-8.62 0-15.608 6.988-15.608 15.608 0 8.62 6.988 15.608 15.608 15.608h29.212c8.62 0 15.608-6.988 15.608-15.608 0-8.62-6.988-15.608-15.608-15.608z" fill="#efecef"/><path d="m415.67 322.749c-2.479 5.323-7.879 9.014-14.142 9.014h-29.213c-4.312 0-8.213-1.745-11.036-4.568-2.823-2.828-4.574-6.729-4.574-11.042 0-8.167 6.278-14.866 14.265-15.543-.939 2.002-1.463 4.24-1.463 6.596 0 4.312 1.75 8.213 4.574 11.036 2.823 2.823 6.724 4.568 11.036 4.568h29.213c.452.001.899-.02 1.34-.061z" fill="#dddaec"/></g><g><path d="m438.891 306.887h-29.212c-8.62 0-15.608 6.988-15.608 15.608 0 8.62 6.988 15.608 15.608 15.608h29.212c8.62 0 15.608-6.988 15.608-15.608 0-8.62-6.988-15.608-15.608-15.608z" fill="#efecef"/><path d="m453.034 329.089c-2.479 5.323-7.879 9.014-14.142 9.014h-29.213c-4.312 0-8.213-1.745-11.036-4.568-2.823-2.828-4.574-6.729-4.574-11.042 0-8.167 6.278-14.866 14.265-15.543-.939 2.002-1.463 4.24-1.463 6.596 0 4.312 1.75 8.213 4.574 11.036 2.823 2.823 6.724 4.568 11.036 4.568h29.213c.452 0 .899-.02 1.34-.061z" fill="#dddaec"/></g><g><path d="m370.033 314.255h-23.028c-6.795 0-12.304 5.509-12.304 12.304 0 6.795 5.509 12.304 12.304 12.304h23.028c6.795 0 12.304-5.509 12.304-12.304 0-6.795-5.508-12.304-12.304-12.304z" fill="#efecef"/><path d="m381.183 331.757c-1.955 4.196-6.212 7.106-11.148 7.106h-23.029c-3.399 0-6.475-1.376-8.7-3.601-2.226-2.23-3.605-5.305-3.605-8.704 0-6.438 4.949-11.719 11.245-12.253-.741 1.578-1.153 3.342-1.153 5.2 0 3.399 1.38 6.475 3.605 8.7 2.226 2.226 5.301 3.601 8.7 3.601h23.029c.356 0 .708-.016 1.056-.049z" fill="#dddaec"/></g><g fill="#e4f6ff"><path d="m326.851 442.21h-40.903c-3.857 0-6.983 3.127-6.983 6.983 0 3.857 3.127 6.983 6.983 6.983h40.903c3.857 0 6.983-3.127 6.983-6.983 0-3.857-3.126-6.983-6.983-6.983z"/><path d="m368.151 417h-40.903c-3.857 0-6.983 3.127-6.983 6.983 0 3.857 3.127 6.983 6.983 6.983h40.903c3.857 0 6.983-3.127 6.983-6.983 0-3.856-3.126-6.983-6.983-6.983z"/><path d="m210.324 387.29h-40.903c-3.857 0-6.983 3.127-6.983 6.983 0 3.857 3.127 6.983 6.983 6.983h40.903c3.857 0 6.983-3.127 6.983-6.983 0-3.857-3.127-6.983-6.983-6.983z"/><path d="m173.969 410.894h-40.903c-3.857 0-6.983 3.127-6.983 6.983 0 3.857 3.127 6.983 6.983 6.983h40.903c3.857 0 6.983-3.127 6.983-6.983 0-3.857-3.126-6.983-6.983-6.983z"/><path d="m453.218 358.366h-40.903c-3.857 0-6.983 3.127-6.983 6.983 0 3.857 3.127 6.983 6.983 6.983h40.903c3.857 0 6.983-3.127 6.983-6.983 0-3.856-3.127-6.983-6.983-6.983z"/><path d="m251.421 210.543h-35.697c-3.366 0-6.095 2.729-6.095 6.095 0 3.366 2.729 6.095 6.095 6.095h35.697c3.366 0 6.095-2.729 6.095-6.095 0-3.366-2.729-6.095-6.095-6.095z"/><path d="m276.694 187.931h-35.697c-3.366 0-6.095 2.729-6.095 6.095 0 3.366 2.729 6.095 6.095 6.095h35.697c3.366 0 6.095-2.729 6.095-6.095 0-3.367-2.729-6.095-6.095-6.095z"/><path d="m421.239 200.345h-35.697c-3.366 0-6.095 2.729-6.095 6.095 0 3.366 2.729 6.095 6.095 6.095h35.697c3.366 0 6.095-2.729 6.095-6.095 0-3.366-2.729-6.095-6.095-6.095z"/><path d="m452.72 179.506h-35.697c-3.366 0-6.095 2.729-6.095 6.095 0 3.366 2.729 6.095 6.095 6.095h35.697c3.366 0 6.095-2.729 6.095-6.095-.001-3.366-2.73-6.095-6.095-6.095z"/><path d="m317.423 65.999h-20.115c-1.897 0-3.434 1.538-3.434 3.434 0 1.897 1.538 3.434 3.434 3.434h20.115c1.897 0 3.434-1.538 3.434-3.434 0-1.897-1.537-3.434-3.434-3.434z"/><path d="m299.471 55.132h-20.115c-1.897 0-3.434 1.538-3.434 3.434 0 1.897 1.538 3.434 3.434 3.434h20.115c1.897 0 3.434-1.538 3.434-3.434.001-1.897-1.537-3.434-3.434-3.434z"/></g><path d="m107.112 113.804-6.371-3.678 6.371-3.678c6.371-3.678 8.553-11.824 4.875-18.195-3.678-6.371-11.824-8.553-18.195-4.875l-6.371 3.678v-7.357c0-7.356-5.963-13.32-13.32-13.32-7.356 0-13.32 5.963-13.32 13.32v7.357l-6.371-3.678c-6.371-3.678-14.517-1.495-18.195 4.875-3.678 6.371-1.495 14.517 4.875 18.195l6.371 3.678-6.371 3.678c-6.37 3.678-8.553 11.824-4.875 18.195s11.824 8.554 18.195 4.875l19.69-11.368 19.691 11.368c6.371 3.678 14.517 1.495 18.195-4.875 3.679-6.37 1.496-14.517-4.874-18.195z" fill="#78c2a4"/><path d="m195.9 113.804-6.371-3.678 6.371-3.678c6.371-3.678 8.553-11.824 4.875-18.195-3.678-6.371-11.824-8.553-18.195-4.875l-6.371 3.678v-7.357c0-7.356-5.963-13.32-13.32-13.32s-13.32 5.963-13.32 13.32v7.357l-6.371-3.678c-6.371-3.678-14.517-1.495-18.195 4.875-3.678 6.371-1.495 14.517 4.875 18.195l6.371 3.678-6.371 3.678c-6.37 3.678-8.553 11.824-4.875 18.195s11.824 8.554 18.195 4.875l19.69-11.368 19.691 11.368c6.371 3.678 14.517 1.495 18.195-4.875 3.68-6.37 1.497-14.517-4.874-18.195z" fill="#78c2a4"/><path d="m288.679 113.804-6.371-3.678 6.371-3.678c6.371-3.678 8.553-11.824 4.875-18.195-3.678-6.371-11.824-8.553-18.195-4.875l-6.371 3.678v-7.357c0-7.356-5.963-13.32-13.32-13.32-7.356 0-13.32 5.963-13.32 13.32v7.357l-6.371-3.678c-6.371-3.678-14.517-1.495-18.195 4.875-3.678 6.371-1.495 14.517 4.875 18.195l6.371 3.678-6.371 3.678c-6.37 3.678-8.553 11.824-4.875 18.195s11.824 8.554 18.195 4.875l19.69-11.368 19.691 11.368c6.371 3.678 14.517 1.495 18.195-4.875 3.68-6.37 1.497-14.517-4.874-18.195z" fill="#78c2a4"/><path d="m93.145 190.621-6.371-3.678 6.371-3.678c6.371-3.678 8.553-11.824 4.875-18.195-3.678-6.371-11.824-8.553-18.195-4.875l-6.371 3.678v-7.357c0-7.356-5.963-13.32-13.32-13.32s-13.32 5.963-13.32 13.32v7.357l-6.371-3.678c-6.371-3.678-14.517-1.495-18.195 4.875-3.678 6.371-1.495 14.517 4.875 18.195l6.371 3.678-6.371 3.678c-6.37 3.678-8.553 11.824-4.875 18.195s11.824 8.554 18.195 4.875l19.69-11.368 19.691 11.368c6.371 3.678 14.517 1.495 18.195-4.875 3.68-6.37 1.497-14.517-4.874-18.195z" fill="#78c2a4"/><path d="m182.304 289.61c-2.917-2.066-6.957-1.376-9.023 1.541l-3.743 5.285v-23.364c0-3.575-2.898-6.473-6.473-6.473s-6.473 2.898-6.473 6.473v23.364l-3.743-5.285c-2.066-2.918-6.105-3.608-9.023-1.541-2.918 2.066-3.608 6.106-1.541 9.023l15.498 21.884c1.213 1.714 3.183 2.732 5.282 2.732 2.1 0 4.069-1.018 5.282-2.732l15.498-21.884c2.067-2.917 1.377-6.957-1.541-9.023z" fill="#78c2a4"/><path d="m219.884 252.846c-2.917-2.066-6.957-1.376-9.023 1.541l-3.743 5.285v-23.364c0-3.575-2.898-6.473-6.473-6.473s-6.473 2.898-6.473 6.473v23.364l-3.743-5.285c-2.066-2.918-6.105-3.608-9.023-1.541-2.918 2.066-3.608 6.106-1.541 9.023l15.498 21.884c1.213 1.714 3.183 2.732 5.282 2.732 2.1 0 4.069-1.018 5.282-2.732l15.498-21.884c2.067-2.917 1.377-6.957-1.541-9.023z" fill="#78c2a4"/><path d="m254.154 294.235c-2.917-2.066-6.957-1.376-9.023 1.541l-3.743 5.285v-23.364c0-3.575-2.898-6.473-6.473-6.473s-6.473 2.898-6.473 6.473v23.364l-3.743-5.285c-2.066-2.918-6.105-3.608-9.023-1.541-2.918 2.066-3.608 6.106-1.541 9.023l15.498 21.884c1.213 1.714 3.183 2.732 5.282 2.732s4.069-1.018 5.282-2.732l15.498-21.884c2.066-2.916 1.377-6.956-1.541-9.023z" fill="#78c2a4"/><path d="m339.284 262.462c-2.917-2.066-6.957-1.376-9.023 1.541l-3.743 5.285v-23.364c0-3.575-2.898-6.473-6.473-6.473s-6.473 2.898-6.473 6.473v23.364l-3.743-5.285c-2.066-2.918-6.105-3.608-9.023-1.541-2.918 2.066-3.608 6.106-1.541 9.023l15.498 21.884c1.213 1.714 3.183 2.732 5.282 2.732 2.1 0 4.069-1.018 5.282-2.732l15.498-21.884c2.067-2.917 1.377-6.957-1.541-9.023z" fill="#78c2a4"/><path d="m390.496 233.258c-2.917-2.066-6.957-1.376-9.023 1.541l-3.743 5.285v-23.364c0-3.575-2.898-6.473-6.473-6.473s-6.473 2.898-6.473 6.473v23.364l-3.743-5.285c-2.066-2.918-6.105-3.608-9.023-1.541-2.918 2.066-3.608 6.106-1.541 9.023l15.498 21.884c1.213 1.714 3.183 2.732 5.282 2.732s4.069-1.018 5.282-2.732l15.498-21.884c2.066-2.916 1.376-6.956-1.541-9.023z" fill="#78c2a4"/><path d="m493.807 288.4c-2.917-2.066-6.957-1.376-9.023 1.541l-3.743 5.285v-23.364c0-3.575-2.898-6.473-6.473-6.473s-6.473 2.898-6.473 6.473v23.364l-3.743-5.285c-2.066-2.918-6.105-3.608-9.023-1.541-2.918 2.066-3.608 6.106-1.541 9.023l15.498 21.884c1.213 1.714 3.183 2.732 5.282 2.732 2.1 0 4.069-1.018 5.282-2.732l15.498-21.884c2.066-2.917 1.376-6.957-1.541-9.023z" fill="#78c2a4"/></g></svg>