<svg id="Capa_1" enable-background="new 0 0 512 512" height="512" viewBox="0 0 512 512" width="512" xmlns="http://www.w3.org/2000/svg"><g><circle cx="82.504" cy="122.093" fill="#eaf6ff" r="33.873"/><path d="m82.504 88.22c-5.568 0-10.818 1.352-15.453 3.733 10.935 5.618 18.421 17.001 18.421 30.14s-7.486 24.522-18.421 30.14c4.635 2.381 9.884 3.733 15.453 3.733 18.708 0 33.873-15.166 33.873-33.873s-15.166-33.873-33.873-33.873z" fill="#d8ecfe"/><circle cx="206.126" cy="44.675" fill="#eaf6ff" r="44.675"/><path d="m206.125 0c-5.432 0-10.637.972-15.453 2.747 17.058 6.289 29.223 22.687 29.223 41.928s-12.165 35.64-29.223 41.928c4.816 1.776 10.021 2.747 15.453 2.747 24.674 0 44.676-20.002 44.676-44.676s-20.002-44.674-44.676-44.674z" fill="#d8ecfe"/><g><path d="m378.709 408.703h-277.789c-16.158 0-29.256-13.098-29.256-29.256v-134.107c0-16.158 13.098-29.256 29.256-29.256h277.79c16.158 0 29.256 13.098 29.256 29.256v134.107c-.001 16.158-13.099 29.256-29.257 29.256z" fill="#8fd8fa"/><path d="m378.709 216.084h-30.905c16.157 0 29.256 13.098 29.256 29.256v134.107c0 16.158-13.099 29.256-29.256 29.256h30.905c16.157 0 29.256-13.098 29.256-29.256v-134.107c0-16.157-13.098-29.256-29.256-29.256z" fill="#6bcdfe"/><ellipse cx="239.815" cy="312.394" fill="#eaf6ff" rx="92.996" ry="49.27"/><path d="m239.815 263.124c-5.265 0-10.426.235-15.453.681 44.005 3.9 77.543 24.167 77.543 48.589 0 24.421-33.539 44.689-77.543 48.589 5.027.445 10.187.681 15.453.681 51.36 0 92.996-22.059 92.996-49.27s-41.636-49.27-92.996-49.27z" fill="#d8ecfe"/></g><path d="m202.778 187.529c-1.336-.884-2.349-2.162-2.897-3.667-4.859-13.338-17.645-22.865-32.663-22.865s-27.804 9.528-32.663 22.865c-.548 1.505-1.561 2.784-2.897 3.667-8.504 5.623-13.95 15.499-13.303 26.597.861 14.767 12.765 26.831 27.519 27.876 6.497.46 12.586-1.173 17.668-4.288 2.248-1.378 5.104-1.378 7.352 0 5.082 3.116 11.171 4.748 17.668 4.288 14.755-1.045 26.659-13.109 27.519-27.876.647-11.098-4.799-20.974-13.303-26.597z" fill="#eaf6ff"/><g><path d="m202.778 187.529c-1.337-.884-2.349-2.162-2.897-3.668-4.859-13.338-17.645-22.865-32.663-22.865-5.554 0-10.798 1.31-15.453 3.626 7.934 3.948 14.148 10.834 17.211 19.24.549 1.506 1.561 2.784 2.897 3.668 8.504 5.623 13.95 15.499 13.303 26.597-.579 9.94-6.166 18.649-14.254 23.603 5.077 3.105 11.155 4.732 17.64 4.273 14.755-1.045 26.659-13.109 27.519-27.876.647-11.099-4.799-20.975-13.303-26.598z" fill="#d8ecfe"/></g><path d="m465.398 292.438c-1.336-.884-2.349-2.162-2.897-3.667-4.859-13.338-17.645-22.865-32.663-22.865s-27.804 9.528-32.663 22.865c-.548 1.505-1.561 2.784-2.897 3.667-8.504 5.623-13.95 15.499-13.303 26.597.861 14.767 12.765 26.831 27.519 27.876 6.497.46 12.586-1.173 17.668-4.288 2.248-1.378 5.104-1.378 7.352 0 5.082 3.116 11.171 4.748 17.668 4.288 14.755-1.045 26.659-13.109 27.519-27.876.646-11.098-4.799-20.974-13.303-26.597z" fill="#eaf6ff"/><g><path d="m465.398 292.438c-1.337-.884-2.349-2.162-2.897-3.668-4.859-13.338-17.645-22.865-32.663-22.865-5.553 0-10.798 1.309-15.453 3.626 7.934 3.948 14.148 10.834 17.211 19.24.548 1.506 1.561 2.784 2.897 3.668 8.504 5.623 13.95 15.499 13.303 26.597-.579 9.94-6.166 18.649-14.254 23.603 5.077 3.105 11.154 4.732 17.64 4.273 14.755-1.045 26.659-13.109 27.519-27.876.646-11.099-4.799-20.975-13.303-26.598z" fill="#d8ecfe"/></g><g><path d="m369.479 512h-259.329c-28.448 0-51.509-23.061-51.509-51.509v-42.981h362.347v42.981c0 28.448-23.061 51.509-51.509 51.509z" fill="#aee69c"/><path d="m390.083 417.51v42.981c0 28.448-23.061 51.509-51.509 51.509h30.905c28.448 0 51.509-23.061 51.509-51.509v-42.981z" fill="#89daa4"/><path d="m426.955 432.211h-374.281c-10.729 0-19.427-8.698-19.427-19.427 0-10.729 8.698-19.427 19.427-19.427h374.28c10.729 0 19.427 8.698 19.427 19.427 0 10.729-8.697 19.427-19.426 19.427z" fill="#dbf1d0"/><path d="m426.955 393.358h-30.905c10.729 0 19.427 8.697 19.427 19.427s-8.698 19.427-19.427 19.427h30.905c10.729 0 19.427-8.698 19.427-19.427s-8.698-19.427-19.427-19.427z" fill="#c1e9af"/></g></g></svg>